<svg id="Layer_1" data-name="Layer 1" xmlns="http://www.w3.org/2000/svg" viewBox="0 0 1920 1080"><defs><style>.cls-1{fill:#fff;}</style></defs><path d="M730,439.34q0,19.46-12.94,32-13.8,13.13-40,13.12-30.76,0-43.46-10.78c-1-.86-1.46-2.46-1.46-4.81q0-.81-.13-13.71t-.12-13.83c0-1,.57-1.52,1.71-1.52h5a1.58,1.58,0,0,1,1.7,1.52c.17,1,.41,3.48.74,7.38q.74,12.66,9.76,20.63,4.28,3.77,12.21,6.33a46.72,46.72,0,0,0,14.28,2.58q24.42,0,32.59-15.59,3.68-7.26,3.67-18.05a22.48,22.48,0,0,0-7-16.52q-7.82-7.74-27.22-14.42-22-7.5-31.25-15.12-12.33-10-12.33-31.18,0-19.92,16.84-33.64,12.82-10.55,33.7-10.54A72.2,72.2,0,0,1,712,327.64q7.56,2.81,11.11,5.86a4.32,4.32,0,0,1,1.95,3.16,167.35,167.35,0,0,1,1.34,23.91c0,1.65-.24,2.47-.73,2.47h-5.86c-.57,0-1-.47-1.22-1.41-.49-2.27-1.06-5.23-1.71-8.91A16.83,16.83,0,0,0,708.3,341q-12.33-6.79-28.44-6.8-14.54,0-21.49,6-7.32,6.21-7.32,21.92a23.46,23.46,0,0,0,6.83,16.76q3.3,3.51,12.82,7.5,7.93,3,15.87,6.21,15.75,6.57,18.55,8.09a57.59,57.59,0,0,1,15.51,11.6Q730,422.46,730,439.34Z"/><path d="M890.52,466.76c0,.71-1.31,3.17-3.91,7.39a56.27,56.27,0,0,1-4.27,7.73,2.68,2.68,0,0,1-2.08,1.41H764.05c-1,0-1.46-.39-1.46-1.17v-3.87c0-.78.4-1.17,1.22-1.17h18.31q2.19,0,2.19-2.46,0-1.06-.36-14.18t.12-58.14q.48-45,.49-47.23,0-25-4.76-25H766q-1.71,0-1.71-1.41V325.3q0-1.41,1.47-1.41h66c.81,0,1.22.31,1.22.94v4.1c0,.78-.33,1.17-1,1.17H807.51a2,2,0,0,0-2.2,1.64q-.36,1.65-1.22,57.2-.74,52.28-.73,59.54,0,27.07,6.47,27.08,39.42,0,45.29-.47,19-1.53,30.63-8.33a12.7,12.7,0,0,1,3.54-1.75A2.22,2.22,0,0,1,890.52,466.76Z"/><path d="M1061.75,482.12c0,.78-.25,1.17-.74,1.17h-56.27c-.81,0-1.22-.47-1.22-1.41v-3.16c0-1.09.41-1.64,1.22-1.64h16.72c1.3,0,1.83-.7,1.59-2.11q-1.09-3.75-8.42-24.44t-8.06-22.21c-.65-1.56-1.51-2.34-2.56-2.34h-59a2.85,2.85,0,0,0-1.83,1.4q-1.71,3.17-5.86,14.83t-5.13,15.88q-2,9.38-2,11.25,0,7.74,2,7.74h18.56c1,0,1.46.55,1.46,1.64v3.4c0,.78-.41,1.17-1.22,1.17H901.71c-.81,0-1.22-.39-1.22-1.17v-3.87c0-.78.33-1.17,1-1.17H912q2.68,0,7.26-11t27.28-63.64Q961,369.26,981.79,322c.9-2.42,1.79-3.79,2.69-4.1q3.4-.93,8.79-2.93c.56-.23,1.22.18,2,1.23s.4,2.25-1,3.58q-3.66,3.63-3.66,7a25.29,25.29,0,0,0,1.71,8.79q6.59,17.58,23.8,65.81T1040,463.83q6.46,13.26,9.28,13.25h11.47c.65,0,1,.55,1,1.64Zm-60.43-66.81q-5-13.95-10.74-30.59T978.74,350a2.87,2.87,0,0,0-1-1.88,8,8,0,0,0-1.22,1.88q-15.25,35.87-21.91,50.86T948,416.37c0,.46.36.7,1.1.7h51.63C1001.52,417.07,1001.73,416.48,1001.32,415.31Z"/><path d="M930.19,688.24q0,37-18.56,57.9a82.53,82.53,0,0,1-10.74,10.67q-8.91,6.8-23.19,11.84-11.48,4.1-29.79,4.1-29.17,0-43.94-7.15a57.82,57.82,0,0,1-18.07-13.25A59.52,59.52,0,0,1,773,730.67q-4.76-14.17-4.76-37.39a98.27,98.27,0,0,1,4.52-30,74.31,74.31,0,0,1,16-28.25q10.62-11.49,30.52-19a88.13,88.13,0,0,1,31.25-5.27q26.12,0,39.91,6,15.51,6.69,24.3,18.29Q930.19,655.31,930.19,688.24Zm-19.29,6.33q0-16.87-4-29.54a65.78,65.78,0,0,0-14.4-25.43A58.65,58.65,0,0,0,871,624.71a77.41,77.41,0,0,0-28.8-5.74q-18.69,0-27,5.74Q800.07,635,794.45,647.45q-7.58,16.41-7.57,40.09,0,34.92,13.55,55Q808.61,754.71,825,762a67.61,67.61,0,0,0,28,5.75,57.65,57.65,0,0,0,31.49-9.14q11.24-7,19.29-24.15Q910.9,718.84,910.9,694.57Z"/><path d="M1119.73,688.24q0,37-18.55,57.9a83.12,83.12,0,0,1-10.75,10.67q-8.91,6.8-23.19,11.84-11.48,4.1-29.78,4.1-29.19,0-44-7.15a57.93,57.93,0,0,1-18.07-13.25,59.52,59.52,0,0,1-12.94-21.68q-4.75-14.17-4.76-37.39a98.27,98.27,0,0,1,4.52-30,74.31,74.31,0,0,1,16-28.25q10.62-11.49,30.52-19a88.17,88.17,0,0,1,31.25-5.27q26.12,0,39.92,6,15.49,6.69,24.29,18.29Q1119.72,655.31,1119.73,688.24Zm-19.29,6.33q0-16.87-4-29.54A65.93,65.93,0,0,0,1082,639.6a58.69,58.69,0,0,0-21.48-14.89,77.5,77.5,0,0,0-28.81-5.74q-18.68,0-27,5.74Q989.61,635,984,647.45q-7.57,16.41-7.57,40.09,0,34.92,13.55,55,8.17,12.19,24.54,19.45a67.53,67.53,0,0,0,28,5.75,57.65,57.65,0,0,0,31.49-9.14q11.23-7,19.29-24.15Q1100.44,718.84,1100.44,694.57Z"/><path d="M1304.27,769.93c0,.94-.41,1.41-1.22,1.41H1269c-1.55,0-2.52-.39-2.93-1.17q-.49-.46-21.61-26.14a310.25,310.25,0,0,0-27-29.53q-12.82-12.43-17-15.59-2-1.29-3.3-.36l-8.67,7.27a7.11,7.11,0,0,0-.73,2.35q0,.35.12,15t.13,17.46q0,24.5,3.17,24.5h20.26c.65,0,1,.47,1,1.41v3.63c0,.78-.41,1.17-1.22,1.17h-59c-1.22,0-1.83-.31-1.83-.94v-4.1a1.38,1.38,0,0,1,.24-.88c.17-.19.61-.29,1.35-.29h15.25c1.31,0,2-.82,2-2.46q0-.46-.12-35.34t-.13-36.86q0-2-.12-25.14t-.12-23.86q0-23.31-4-23.32H1147c-.9,0-1.34-.39-1.34-1.17v-4.1c0-.63.44-.94,1.34-.94h59.45c.65,0,1,.31,1,.94v3.86c0,.94-.33,1.41-1,1.41h-17c-.81,0-1.22.59-1.22,1.76q-.73,3.51-.73,75.6c0,2.11.4,3,1.22,2.58q22.57-20.16,46.51-41a218.15,218.15,0,0,0,22.7-22.5q8.05-9.25,8.06-14.18c0-1.49-.94-2.23-2.81-2.23H1248c-.65,0-1-.39-1-1.17v-4.1c0-.63.4-.94,1.22-.94h51c1,0,1.47.31,1.47.94v3.86c0,.94-.33,1.41-1,1.41h-12.21a8,8,0,0,0-6,2.93q-23.19,23.91-35,33.64-8.31,6.79-32.23,29.77c-1.3,1.56-1.67,2.58-1.1,3a232.28,232.28,0,0,1,18.07,15.35q13.67,12.66,34.55,37.74,13.67,16.53,15.74,17.47,7.45,7.26,12,7.26h9.52a1.07,1.07,0,0,1,1.22,1.18Z"/><text/><path d="M730,439.34q0,19.46-12.94,32-13.8,13.13-40,13.12-30.76,0-43.46-10.78c-1-.86-1.46-2.46-1.46-4.81q0-.81-.13-13.71t-.12-13.83c0-1,.57-1.52,1.71-1.52h5a1.58,1.58,0,0,1,1.7,1.52c.17,1,.41,3.48.74,7.38q.74,12.66,9.76,20.63,4.28,3.77,12.21,6.33a46.72,46.72,0,0,0,14.28,2.58q24.42,0,32.59-15.59,3.68-7.26,3.67-18.05a22.48,22.48,0,0,0-7-16.52q-7.82-7.74-27.22-14.42-22-7.5-31.25-15.12-12.33-10-12.33-31.18,0-19.92,16.84-33.64,12.82-10.55,33.7-10.54A72.2,72.2,0,0,1,712,327.64q7.56,2.81,11.11,5.86a4.32,4.32,0,0,1,1.95,3.16,167.35,167.35,0,0,1,1.34,23.91c0,1.65-.24,2.47-.73,2.47h-5.86c-.57,0-1-.47-1.22-1.41-.49-2.27-1.06-5.23-1.71-8.91A16.83,16.83,0,0,0,708.3,341q-12.33-6.79-28.44-6.8-14.54,0-21.49,6-7.32,6.21-7.32,21.92a23.46,23.46,0,0,0,6.83,16.76q3.3,3.51,12.82,7.5,7.93,3,15.87,6.21,15.75,6.57,18.55,8.09a57.59,57.59,0,0,1,15.51,11.6Q730,422.46,730,439.34Z"/><path d="M1061.75,482.12c0,.78-.25,1.17-.74,1.17h-56.27c-.81,0-1.22-.47-1.22-1.41v-3.16c0-1.09.41-1.64,1.22-1.64h16.72c1.3,0,1.83-.7,1.59-2.11q-1.09-3.75-8.42-24.44t-8.06-22.21c-.65-1.56-1.51-2.34-2.56-2.34h-59a2.85,2.85,0,0,0-1.83,1.4q-1.71,3.17-5.86,14.83t-5.13,15.88q-2,9.38-2,11.25,0,7.74,2,7.74h18.56c1,0,1.46.55,1.46,1.64v3.4c0,.78-.41,1.17-1.22,1.17H901.71c-.81,0-1.22-.39-1.22-1.17v-3.87c0-.78.33-1.17,1-1.17H912q2.68,0,7.26-11t27.28-63.64Q961,369.26,981.79,322c.9-2.42,1.79-3.79,2.69-4.1q3.4-.93,8.79-2.93c.56-.23,1.22.18,2,1.23s.4,2.25-1,3.58q-3.66,3.63-3.66,7a25.29,25.29,0,0,0,1.71,8.79q6.59,17.58,23.8,65.81T1040,463.83q6.46,13.26,9.28,13.25h11.47c.65,0,1,.55,1,1.64Zm-60.43-66.81q-5-13.95-10.74-30.59T978.74,350a2.87,2.87,0,0,0-1-1.88,8,8,0,0,0-1.22,1.88q-15.25,35.87-21.91,50.86T948,416.37c0,.46.36.7,1.1.7h51.63C1001.52,417.07,1001.73,416.48,1001.32,415.31Z"/><path d="M930.19,688.24q0,37-18.56,57.9a82.53,82.53,0,0,1-10.74,10.67q-8.91,6.8-23.19,11.84-11.48,4.1-29.79,4.1-29.17,0-43.94-7.15a57.82,57.82,0,0,1-18.07-13.25A59.52,59.52,0,0,1,773,730.67q-4.76-14.17-4.76-37.39a98.27,98.27,0,0,1,4.52-30,74.31,74.31,0,0,1,16-28.25q10.62-11.49,30.52-19a88.13,88.13,0,0,1,31.25-5.27q26.12,0,39.91,6,15.51,6.69,24.3,18.29Q930.19,655.31,930.19,688.24Zm-19.29,6.33q0-16.87-4-29.54a65.78,65.78,0,0,0-14.4-25.43A58.65,58.65,0,0,0,871,624.71a77.41,77.41,0,0,0-28.8-5.74q-18.69,0-27,5.74Q800.07,635,794.45,647.45q-7.58,16.41-7.57,40.09,0,34.92,13.55,55Q808.61,754.71,825,762a67.61,67.61,0,0,0,28,5.75,57.65,57.65,0,0,0,31.49-9.14q11.24-7,19.29-24.15Q910.9,718.84,910.9,694.57Z"/><path d="M1119.73,688.24q0,37-18.55,57.9a83.12,83.12,0,0,1-10.75,10.67q-8.91,6.8-23.19,11.84-11.48,4.1-29.78,4.1-29.19,0-44-7.15a57.93,57.93,0,0,1-18.07-13.25,59.52,59.52,0,0,1-12.94-21.68q-4.75-14.17-4.76-37.39a98.27,98.27,0,0,1,4.52-30,74.31,74.31,0,0,1,16-28.25q10.62-11.49,30.52-19a88.17,88.17,0,0,1,31.25-5.27q26.12,0,39.92,6,15.49,6.69,24.29,18.29Q1119.72,655.31,1119.73,688.24Zm-19.29,6.33q0-16.87-4-29.54A65.93,65.93,0,0,0,1082,639.6a58.69,58.69,0,0,0-21.48-14.89,77.5,77.5,0,0,0-28.81-5.74q-18.68,0-27,5.74Q989.61,635,984,647.45q-7.57,16.41-7.57,40.09,0,34.92,13.55,55,8.17,12.19,24.54,19.45a67.53,67.53,0,0,0,28,5.75,57.65,57.65,0,0,0,31.49-9.14q11.23-7,19.29-24.15Q1100.44,718.84,1100.44,694.57Z"/><path d="M1304.27,769.93c0,.94-.41,1.41-1.22,1.41H1269c-1.55,0-2.52-.39-2.93-1.17q-.49-.46-21.61-26.14a310.25,310.25,0,0,0-27-29.53q-12.82-12.43-17-15.59-2-1.29-3.3-.36l-8.67,7.27a7.11,7.11,0,0,0-.73,2.35q0,.35.12,15t.13,17.46q0,24.5,3.17,24.5h20.26c.65,0,1,.47,1,1.41v3.63c0,.78-.41,1.17-1.22,1.17h-59c-1.22,0-1.83-.31-1.83-.94v-4.1a1.38,1.38,0,0,1,.24-.88c.17-.19.61-.29,1.35-.29h15.25c1.31,0,2-.82,2-2.46q0-.46-.12-35.34t-.13-36.86q0-2-.12-25.14t-.12-23.86q0-23.31-4-23.32H1147c-.9,0-1.34-.39-1.34-1.17v-4.1c0-.63.44-.94,1.34-.94h59.45c.65,0,1,.31,1,.94v3.86c0,.94-.33,1.41-1,1.41h-17c-.81,0-1.22.59-1.22,1.76q-.73,3.51-.73,75.6c0,2.11.4,3,1.22,2.58q22.57-20.16,46.51-41a218.15,218.15,0,0,0,22.7-22.5q8.05-9.25,8.06-14.18c0-1.49-.94-2.23-2.81-2.23H1248c-.65,0-1-.39-1-1.17v-4.1c0-.63.4-.94,1.22-.94h51c1,0,1.47.31,1.47.94v3.86c0,.94-.33,1.41-1,1.41h-12.21a8,8,0,0,0-6,2.93q-23.19,23.91-35,33.64-8.31,6.79-32.23,29.77c-1.3,1.56-1.67,2.58-1.1,3a232.28,232.28,0,0,1,18.07,15.35q13.67,12.66,34.55,37.74,13.67,16.53,15.74,17.47,7.45,7.26,12,7.26h9.52a1.07,1.07,0,0,1,1.22,1.18Z"/><text/><rect x="755" y="323.64" width="136" height="159.39"/><rect x="1077" y="325.56" width="206" height="158.43"/><path class="cls-1" d="M885,461.5q0,.94-3.77,6.61a49.24,49.24,0,0,1-4.12,6.93,2.6,2.6,0,0,1-2,1.26H763c-.94,0-1.41-.34-1.41-1.05v-3.46q0-1.05,1.17-1.05h17.67c1.41,0,2.12-.74,2.12-2.21q0-.94-.36-12.7t.12-52.09q.47-40.32.47-42.32,0-22.37-4.59-22.36H764.88q-1.65,0-1.65-1.26v-3.05c0-.84.48-1.26,1.42-1.26h63.71q1.17,0,1.17.84V338c0,.7-.31,1.05-.94,1.05H804.92a1.9,1.9,0,0,0-2.12,1.47q-.34,1.47-1.18,51.24-.71,46.85-.7,53.35,0,24.25,6.24,24.25,38,0,43.69-.42,18.38-1.36,29.56-7.45a12.66,12.66,0,0,1,3.41-1.58C884.61,460.41,885,460.94,885,461.5Z"/><path class="cls-1" d="M1276,477.76a1,1,0,0,1-1.13,1.1h-51.76c-1,0-1.58-.36-1.58-1.1v-3.64a1,1,0,0,1,1.13-1.11h12.23c1.89,0,2.83-.92,2.83-2.76V413.71q0-43.6-.9-58.3c-.15-2.13-.53-3.2-1.14-3.2-.45,0-1,.7-1.69,2.1q-2.38,4.74-45.87,101.48-6.57,14.35-10.42,24.4c-.75,1.25-1.39,1.88-1.92,1.88a2,2,0,0,1-2-1.66q-15.63-31.14-32.28-64.6-9.29-19.65-25.7-52c-.68-1.25-1.29-1.87-1.81-1.87s-1,.77-1,2.32q-3.06,44.06-3.06,64.37v25q0,19.43,5.44,19.43h13.36c.83,0,1.24.3,1.24.88v3.87c0,.74-.26,1.1-.79,1.1h-41c-.91,0-1.36-.29-1.36-.88v-3.42c0-1,.37-1.55,1.13-1.55h11.78q3.06,0,3.06-5,0-17.22,1.58-63.16.57-8.61,1-17.34.9-17.12.91-29.48,0-16.12-11.44-21.64-2.49-1.21-10.19-1.88c-.61,0-.91-.29-.91-.88v-4.09c0-.59.3-.88.91-.88h29.89a2.9,2.9,0,0,1,2.83,1.55q10.53,20.31,22.77,44.16,17.88,37.55,38.73,79.18,1.92,2.76,2.94.88,12.67-28.15,27.18-59.74,14-31.58,28.76-63.93a3.74,3.74,0,0,1,3.51-2.1h29c.76,0,1.14.29,1.14.88v3.87c0,.73-.23,1.1-.68,1.1h-11.21c-2.27,0-3.63,2.51-4.08,7.51q-.8,7.06-.79,55.43,0,35.56.79,50.91,1.13,24.62,6.68,24.62h13c.61,0,.91.37.91,1.11Z"/><rect x="595" y="604.97" width="146" height="172.83"/><path class="cls-1" d="M728.94,728.89q0,18.4-13.8,30-15.37,12.9-42.23,12.9-2.94,0-18.92-.71t-23.56-.7h-18.8c-.65,0-1-.31-1-.94v-4.1c0-.78.33-1.17,1-1.17h17q3,0,3-4.1,0-1.41-.49-35.28t-.49-37.28V640.28q-1.09-21.79-4.76-21.8H607.36c-.66,0-1-.43-1-1.29v-3.75c0-.7.41-1.06,1.22-1.06h36.5q1.71,0,13.12-.35t13.37-.35h11.84a85.64,85.64,0,0,1,15.75,2.7A38.72,38.72,0,0,1,714,625.28q7.58,8.67,7.57,21.21a35,35,0,0,1-3.41,16.06,67,67,0,0,1-6.6,9.14q-6.71,8.44-18.67,14.65-2.45,1.29-.25,2A65,65,0,0,1,717.1,701.7Q728.94,711.78,728.94,728.89Zm-26-73a35.55,35.55,0,0,0-11.11-26.2q-11.12-10.95-29.66-11-8.31,0-10.75.71a2.56,2.56,0,0,0-2.07,2.34q-.26,2.24-.25,60.71c0,1.49.45,2.23,1.35,2.23l4.94-.12q5.31-.11,10.56-.11c1.54,0,4.68.19,9.4.58q8.42.83,8.79.82a6.19,6.19,0,0,0,3.05-.93,25.66,25.66,0,0,0,11.23-11.26A37.2,37.2,0,0,0,702.94,655.87Zm5.25,76.07q0-16.29-11.23-27.08-15.75-15.12-42.12-15.12a11.33,11.33,0,0,0-4.64.71c-.57.15-.85.93-.85,2.34v51.45q.6,18.06,4,19.46,6.58,2.58,19.53,2.58,16,0,24.78-7.62Q708.19,749.41,708.19,731.94Z"/><rect class="cls-1" x="836" y="594.4" width="18" height="202.6"/><rect class="cls-1" x="1029" y="594.4" width="17" height="202.6"/></svg>